<svg width="449pt" height="511pt" viewBox="0.00 0.00 449.00 511.00" xmlns="http://www.w3.org/2000/svg" xmlns:xlink="http://www.w3.org/1999/xlink">
<g id="graph0" class="graph" transform="scale(1 1) rotate(0) translate(4 506.85)">
<title>ClusterTest</title>
<polygon fill="white" stroke="none" points="-4,4 -4,-506.85 445.08,-506.85 445.08,4 -4,4"/>
<text xml:space="preserve" text-anchor="middle" x="220.54" y="-482.65" font-family="Arial" font-size="18.00">Методика проверки работоспособности кластера</text>
<!-- test1 -->
<g id="node1" class="node">
<title>test1</title>
<polygon fill="#c8e6c9" stroke="black" points="286.89,-473.25 154.19,-473.25 154.19,-405.25 286.89,-405.25 286.89,-473.25"/>
<text xml:space="preserve" text-anchor="middle" x="220.54" y="-460.25" font-family="Arial" font-size="10.00">Тест 1: Размер кластера</text>
<text xml:space="preserve" text-anchor="middle" x="220.54" y="-448.25" font-family="Arial" font-size="10.00">SHOW STATUS LIKE</text>
<text xml:space="preserve" text-anchor="middle" x="220.54" y="-436.25" font-family="Arial" font-size="10.00">'wsrep_cluster_size'</text>
<text xml:space="preserve" text-anchor="middle" x="220.54" y="-424.25" font-family="Arial" font-size="10.00">Ожидание: 3</text>
<text xml:space="preserve" text-anchor="middle" x="220.54" y="-412.25" font-family="Arial" font-size="10.00">Результат: 3 ✅</text>
</g>
<!-- test2 -->
<g id="node2" class="node">
<title>test2</title>
<polygon fill="#c8e6c9" stroke="black" points="292.43,-369.25 148.65,-369.25 148.65,-301.25 292.43,-301.25 292.43,-369.25"/>
<text xml:space="preserve" text-anchor="middle" x="220.54" y="-356.25" font-family="Arial" font-size="10.00">Тест 2: Адреса нод</text>
<text xml:space="preserve" text-anchor="middle" x="220.54" y="-344.25" font-family="Arial" font-size="10.00">SHOW STATUS LIKE</text>
<text xml:space="preserve" text-anchor="middle" x="220.54" y="-332.25" font-family="Arial" font-size="10.00">'wsrep_incoming_addresses'</text>
<text xml:space="preserve" text-anchor="middle" x="220.54" y="-320.25" font-family="Arial" font-size="10.00">Ожидание: 3 адреса</text>
<text xml:space="preserve" text-anchor="middle" x="220.54" y="-308.25" font-family="Arial" font-size="10.00">Результат: все 3 ✅</text>
</g>
<!-- test1&#45;&gt;test2 -->
<g id="edge1" class="edge">
<title>test1-&gt;test2</title>
<path fill="none" stroke="black" d="M220.54,-404.91C220.54,-404.91 220.54,-381.07 220.54,-381.07"/>
<polygon fill="black" stroke="black" points="224.04,-381.07 220.54,-371.07 217.04,-381.07 224.04,-381.07"/>
</g>
<!-- test3 -->
<g id="node3" class="node">
<title>test3</title>
<polygon fill="#c8e6c9" stroke="black" points="303.84,-265.25 137.24,-265.25 137.24,-185.25 303.84,-185.25 303.84,-265.25"/>
<text xml:space="preserve" text-anchor="middle" x="220.54" y="-252.25" font-family="Arial" font-size="10.00">Тест 3: Создание БД</text>
<text xml:space="preserve" text-anchor="middle" x="220.54" y="-240.25" font-family="Arial" font-size="10.00">CREATE DATABASE test_cluster</text>
<text xml:space="preserve" text-anchor="middle" x="220.54" y="-228.25" font-family="Arial" font-size="10.00">на pxc-node1</text>
<text xml:space="preserve" text-anchor="middle" x="220.54" y="-216.25" font-family="Arial" font-size="10.00">Ожидание: БД появится</text>
<text xml:space="preserve" text-anchor="middle" x="220.54" y="-204.25" font-family="Arial" font-size="10.00">на всех нодах</text>
<text xml:space="preserve" text-anchor="middle" x="220.54" y="-192.25" font-family="Arial" font-size="10.00">Результат: ✅</text>
</g>
<!-- test2&#45;&gt;test3 -->
<g id="edge2" class="edge">
<title>test2-&gt;test3</title>
<path fill="none" stroke="black" d="M220.54,-301.05C220.54,-301.05 220.54,-277.12 220.54,-277.12"/>
<polygon fill="black" stroke="black" points="224.04,-277.12 220.54,-267.12 217.04,-277.12 224.04,-277.12"/>
</g>
<!-- test4 -->
<g id="node4" class="node">
<title>test4</title>
<polygon fill="#c8e6c9" stroke="black" points="278.55,-149.25 162.53,-149.25 162.53,-81.25 278.55,-81.25 278.55,-149.25"/>
<text xml:space="preserve" text-anchor="middle" x="220.54" y="-136.25" font-family="Arial" font-size="10.00">Тест 4: Порты</text>
<text xml:space="preserve" text-anchor="middle" x="220.54" y="-124.25" font-family="Arial" font-size="10.00">ss -tlnp | grep 3306</text>
<text xml:space="preserve" text-anchor="middle" x="220.54" y="-112.25" font-family="Arial" font-size="10.00">на всех нодах</text>
<text xml:space="preserve" text-anchor="middle" x="220.54" y="-100.25" font-family="Arial" font-size="10.00">Ожидание: слушается</text>
<text xml:space="preserve" text-anchor="middle" x="220.54" y="-88.25" font-family="Arial" font-size="10.00">Результат: ✅</text>
</g>
<!-- test3&#45;&gt;test4 -->
<g id="edge3" class="edge">
<title>test3-&gt;test4</title>
<path fill="none" stroke="black" d="M220.54,-184.92C220.54,-184.92 220.54,-160.95 220.54,-160.95"/>
<polygon fill="black" stroke="black" points="224.04,-160.95 220.54,-150.95 217.04,-160.95 224.04,-160.95"/>
</g>
<!-- result -->
<g id="node5" class="node">
<title>result</title>
<ellipse fill="#a5d6a7" stroke="black" stroke-width="2" cx="220.54" cy="-22.63" rx="76.14" ry="22.63"/>
<text xml:space="preserve" text-anchor="middle" x="220.54" y="-25.63" font-family="Arial" font-size="10.00">Кластер полностью</text>
<text xml:space="preserve" text-anchor="middle" x="220.54" y="-13.63" font-family="Arial" font-size="10.00">работоспособен</text>
</g>
<!-- test4&#45;&gt;result -->
<g id="edge4" class="edge">
<title>test4-&gt;result</title>
<path fill="none" stroke="black" d="M220.54,-80.76C220.54,-80.76 220.54,-57.69 220.54,-57.69"/>
<polygon fill="black" stroke="black" points="224.04,-57.69 220.54,-47.69 217.04,-57.69 224.04,-57.69"/>
</g>
</g>
</svg>